<svg xmlns="http://www.w3.org/2000/svg" xmlns:xlink="http://www.w3.org/1999/xlink" viewBox="0,0,256,256" width="50px" height="50px"><g fill="#ffffff" fill-rule="nonzero" stroke="none" stroke-width="1" stroke-linecap="butt" stroke-linejoin="miter" stroke-miterlimit="10" stroke-dasharray="" stroke-dashoffset="0" font-family="none" font-weight="none" font-size="none" text-anchor="none" style="mix-blend-mode: normal"><g transform="scale(5.12,5.12)"><path d="M24,3.63477l-0.5,0.28906l-4,2.31055l-0.5,0.28906v0.57617v7.50781l-6.5,-3.75391l-0.5,-0.28906l-0.5,0.28906l-4,2.31055l-0.5,0.28906v0.57617v6.93164v0.57617l0.5,0.28906l11.5,6.64063v13.27344v0.57617l0.49805,0.28906l6,3.4707l0.5,0.28906l0.5,-0.28906l4,-2.31055l0.5,-0.28906v-0.57617v-7.50781l6.5,3.75391l0.5,0.28906l0.5,-0.28906l4,-2.31055l0.5,-0.28906v-0.57617v-6.93164v-0.57617l-0.5,-0.28906l-11.49805,-6.64062v-13.27344v-0.57617l-0.49805,-0.28906l-6,-3.4707zM24,5.07813l5.5,3.18164l-3.5,2.01758l-5.5,-3.17773zM20.25,7.5332l5.5,3.17773v13.71289c0.0006,0.08872 0.04817,0.17048 0.125,0.21484l11.875,6.85742v6.35156l-7.625,-4.4043l-0.02148,-0.01172l-3.97852,-2.29687c-0.04371,-0.02543 -0.0941,-0.03701 -0.14453,-0.0332c-0.13039,0.01023 -0.23086,0.11921 -0.23047,0.25v13.42578l-5.5,-3.18164v-13.70508c0.0001,-0.08942 -0.04756,-0.17208 -0.125,-0.2168l-11.875,-6.85742v-6.35351l11.625,6.71289c0.0774,0.04467 0.17275,0.04463 0.25011,-0.00009c0.07736,-0.04473 0.12498,-0.12734 0.12489,-0.2167v-4.61914zM29.75,8.69336v13.27344l-3.5,2.02344v-13.2793zM12,12.00781l7.75,4.47656v4.04102l-11.25195,-6.49414zM30,22.39844l11.50195,6.64258l-3.50195,2.02148l-11.50195,-6.64062zM41.75,29.47266v6.35352l-3.5,2.02148v-6.35156zM26.25,31.78516l3.5,2.01953v8.95117l-3.5,2.02148z"></path></g></g></svg>